<?xml version="1.0" encoding="UTF-8" ?>
<!DOCTYPE svg PUBLIC "-//W3C//DTD SVG 1.1//EN" "http://www.w3.org/Graphics/SVG/1.1/DTD/svg11.dtd">
<svg viewBox="0 0 519 254" version="1.1" xmlns="http://www.w3.org/2000/svg" fill="#fff">
<path d=" M 103.28 5.30 C 107.66 -0.70 118.32 -0.95 122.42 5.48 C 124.31 8.66 123.90 12.55 123.80 16.08 C 123.06 24.92 122.65 33.78 121.80 42.61 C 121.12 49.72 121.33 56.87 120.98 64.00 C 120.43 76.33 120.72 88.67 120.61 101.00 C 120.56 105.67 120.64 110.33 120.99 114.99 C 122.13 129.29 122.12 143.64 122.98 157.96 C 123.48 169.96 123.67 181.98 123.96 193.99 C 123.99 198.23 124.27 202.52 123.47 206.71 C 122.44 211.84 117.25 215.78 112.02 215.30 C 108.37 215.14 104.78 213.22 102.95 210.01 C 100.48 205.88 101.18 200.87 100.75 196.29 C 99.19 197.17 97.70 198.17 96.21 199.16 C 88.73 204.34 80.26 208.06 71.43 210.21 C 58.50 212.86 44.78 212.17 32.36 207.59 C 26.48 205.25 21.30 201.47 16.48 197.44 C 5.99 188.13 0.79 174.15 0.00 160.38 L 0.00 152.60 C 0.74 143.67 0.65 134.49 3.93 126.01 C 8.08 112.70 18.73 102.01 31.38 96.52 C 48.14 88.81 68.37 89.00 84.94 97.10 C 89.01 99.04 92.63 101.76 96.65 103.79 C 96.86 74.83 97.92 45.86 100.47 17.00 C 100.91 13.04 100.68 8.60 103.28 5.30 M 44.45 116.58 C 36.97 119.20 30.27 124.50 26.79 131.71 C 22.76 139.48 22.70 148.51 22.89 157.06 C 23.23 167.53 29.07 177.49 37.84 183.15 C 41.81 185.49 46.48 186.23 51.01 186.66 C 58.21 187.17 65.67 187.13 72.51 184.56 C 80.12 181.75 87.39 177.82 93.45 172.39 C 95.23 170.74 97.25 169.13 98.16 166.82 C 98.80 163.59 98.49 160.28 98.50 157.01 C 98.37 152.67 98.60 148.32 98.23 143.99 C 98.09 141.09 96.30 138.68 94.63 136.45 C 91.13 131.98 87.21 127.79 82.68 124.36 C 71.84 116.43 57.48 113.71 44.45 116.58 Z" />
<path d=" M 169.30 65.34 C 171.18 62.44 174.62 60.85 178.02 60.77 C 183.50 60.56 188.90 64.55 190.08 69.95 C 191.15 74.89 190.58 79.99 190.68 85.00 C 190.78 91.69 190.32 98.39 190.99 105.06 C 194.52 102.97 197.50 100.10 201.02 97.99 C 206.49 94.68 212.55 92.35 218.78 90.94 C 231.34 88.45 244.45 92.06 255.01 98.99 C 258.23 101.11 260.42 104.38 262.38 107.63 C 266.80 115.03 270.53 122.93 272.64 131.31 C 276.41 144.53 276.48 158.39 277.06 172.01 C 277.51 180.67 277.29 189.34 277.27 198.00 C 277.14 201.67 277.15 205.73 274.78 208.77 C 271.66 212.84 265.96 214.22 261.11 213.09 C 257.42 212.29 254.46 209.22 253.52 205.60 C 252.42 201.46 252.82 197.14 252.67 192.90 C 252.62 187.60 251.38 182.39 251.36 177.08 C 251.32 170.35 250.94 163.63 250.61 156.91 C 250.12 148.43 249.36 139.81 246.27 131.83 C 244.84 128.12 243.28 124.36 240.75 121.26 C 237.60 117.72 232.63 116.48 228.05 116.52 C 221.00 116.54 213.68 118.55 208.35 123.35 C 203.14 128.09 200.55 134.88 198.52 141.45 C 195.68 151.39 193.72 161.66 193.74 172.04 C 193.73 181.73 192.33 191.37 192.67 201.07 C 193.16 207.96 188.46 214.86 181.79 216.74 C 177.79 217.94 172.86 217.33 170.04 214.01 C 167.81 211.57 167.39 208.14 167.31 204.99 C 167.31 161.31 167.38 117.64 167.29 73.96 C 167.36 71.01 167.59 67.86 169.30 65.34 Z" />
<path d=" M 334.44 89.44 C 342.10 81.43 352.84 76.35 363.95 75.91 C 373.49 75.49 383.35 76.09 392.25 79.84 C 400.83 83.52 408.80 89.17 414.01 97.03 C 420.06 106.18 425.48 116.17 426.83 127.22 C 428.45 139.08 429.97 151.01 429.98 163.00 C 430.04 174.88 428.73 186.71 426.72 198.41 C 425.29 210.40 422.56 222.60 415.85 232.83 C 410.56 241.32 401.92 247.29 392.60 250.56 C 386.82 252.43 380.77 253.31 374.75 254.00 L 373.23 254.00 C 365.68 253.39 357.90 253.17 350.76 250.36 C 343.02 247.54 335.79 242.92 330.66 236.40 C 325.36 229.62 321.51 221.67 319.64 213.26 C 318.95 210.04 318.67 206.41 320.49 203.48 C 323.52 198.38 330.08 196.28 335.72 197.33 C 338.62 197.86 341.26 199.77 342.46 202.50 C 344.81 207.69 345.42 213.59 348.58 218.43 C 352.70 224.88 360.37 228.57 367.92 228.75 C 376.07 228.98 384.99 228.83 391.85 223.79 C 398.65 218.88 401.24 210.21 402.11 202.24 C 403.16 192.55 404.32 182.82 404.08 173.05 C 397.13 176.29 390.35 180.34 382.60 181.33 C 371.30 182.72 359.53 182.11 348.76 178.14 C 338.05 174.37 329.00 166.06 324.43 155.64 C 317.91 140.92 316.85 123.58 322.66 108.45 C 325.40 101.49 329.09 94.76 334.44 89.44 M 363.42 100.51 C 351.59 103.72 344.55 115.61 342.86 127.11 C 340.91 139.67 349.29 152.72 361.36 156.53 C 371.35 159.54 383.58 159.18 391.33 151.33 C 397.95 144.32 401.37 134.51 401.39 124.93 C 401.59 119.53 398.24 114.91 394.93 110.97 C 387.48 101.98 374.77 97.55 363.42 100.51 Z" />
<path d=" M 474.64 170.59 C 478.82 161.23 489.64 155.72 499.68 157.50 C 509.38 158.76 517.47 166.81 519.00 176.44 L 519.00 182.53 C 517.72 188.98 514.59 195.27 509.11 199.13 C 499.10 207.10 482.88 203.46 476.38 192.72 C 472.49 186.16 471.29 177.62 474.64 170.59 Z" />
</svg>
