<svg xmlns="http://www.w3.org/2000/svg" width="404" height="79" fill="none" xmlns:v="https://vecta.io/nano"><g clip-path="url(#A)"><path d="M1.4 28.56c0-2.027.853-3.733 2.56-5.12 1.707-1.44 4.213-2.16 7.52-2.16v4.32c-.64.8-1.147 1.52-1.52 2.16l.4.32c1.653-2.293 3.493-4 5.52-5.12 2.08-1.12 4.667-1.68 7.76-1.68 2.88 0 5.44.613 7.68 1.84 2.293 1.227 4.053 2.96 5.28 5.2 1.28 2.187 1.92 4.693 1.92 7.52v12.32c0 2.88-.72 5.44-2.16 7.68-1.387 2.187-3.333 3.893-5.84 5.12-2.453 1.173-5.227 1.76-8.32 1.76-1.813 0-3.787-.373-5.92-1.12-2.08-.747-3.813-1.787-5.2-3.12l-.32.4c.267.427.853.96 1.76 1.6v11.04c0 4.8-3.707 7.2-11.12 7.2V28.56zm18.56 24.72c2.453 0 4.32-.507 5.6-1.52 1.333-1.013 2-2.453 2-4.32v-10.8c0-1.92-.667-3.387-2-4.4-1.28-1.013-3.147-1.52-5.6-1.52-2.24 0-4.08.533-5.52 1.6-1.387 1.013-2.08 2.32-2.08 3.92v11.52c0 1.547.693 2.853 2.08 3.92 1.44 1.067 3.28 1.6 5.52 1.6zm104.027 6.16c-1.173 2.187-3.067 3.28-5.68 3.28-1.12 0-2.107-.24-2.96-.72-.853-.533-1.653-1.333-2.4-2.4l-9.84-14.08-5.28 4.96v5.84c0 2.293-.907 3.947-2.72 4.96-1.813.96-4.533 1.44-8.16 1.44V13.6c0-5.547 3.68-8.32 11.04-8.32v32.88l18-16.88c3.04 2.347 4.56 4.213 4.56 5.6 0 .853-.24 1.627-.72 2.32-.427.64-1.147 1.44-2.16 2.4l-8.24 7.84 14.56 20zm21.114 3.28c-3.306 0-6.373-.667-9.2-2-2.773-1.333-4.986-3.147-6.64-5.44s-2.48-4.853-2.48-7.68V37.36c0-2.987.827-5.707 2.48-8.16 1.707-2.507 3.974-4.453 6.8-5.84s5.867-2.08 9.12-2.08c3.2 0 6.134.667 8.8 2 2.72 1.28 4.854 3.12 6.4 5.52 1.547 2.347 2.32 5.013 2.32 8v4.32c0 1.28-.48 2.373-1.44 3.28-.96.853-2.186 1.28-3.68 1.28h-20.16v1.12c0 2.133.64 3.893 1.92 5.28 1.334 1.333 3.28 2 5.84 2 2.507 0 4.347-.533 5.52-1.6 1.174-1.12 1.76-2.507 1.76-4.16 1.067-.107 1.867-.16 2.4-.16 2.187 0 3.867.453 5.04 1.36s1.76 2.24 1.76 4c0 1.44-.72 2.88-2.16 4.32s-3.44 2.613-6 3.52c-2.506.907-5.306 1.36-8.4 1.36zm7.68-24.8V36.8c0-2.133-.72-3.813-2.16-5.04-1.386-1.28-3.226-1.92-5.52-1.92s-4.16.64-5.6 1.92c-1.386 1.227-2.08 2.907-2.08 5.04v1.12h15.36zm34.735 24.8c-3.52 0-6.64-.64-9.36-1.92s-4.854-3.04-6.4-5.28c-1.494-2.293-2.24-4.88-2.24-7.76V37.12c0-3.093.746-5.84 2.24-8.24 1.546-2.4 3.68-4.267 6.4-5.6s5.813-2 9.28-2c3.253 0 6.133.48 8.64 1.44 2.506.907 4.453 2.187 5.84 3.84 1.44 1.653 2.16 3.547 2.16 5.68 0 1.76-.694 3.173-2.08 4.24s-3.227 1.6-5.52 1.6c-.694 0-1.2-.027-1.52-.08 0-2.133-.667-3.867-2-5.2-1.334-1.387-3.067-2.08-5.2-2.08s-3.894.667-5.28 2c-1.334 1.28-2 2.933-2 4.96v9.28c0 1.867.666 3.387 2 4.56 1.386 1.173 3.173 1.76 5.36 1.76 2.133 0 3.866-.667 5.2-2 1.386-1.333 2.08-3.067 2.08-5.2.373-.053.906-.08 1.6-.08 2.293 0 4.133.533 5.52 1.6 1.386 1.013 2.08 2.4 2.08 4.16 0 2.133-.72 4.027-2.16 5.68-1.387 1.653-3.36 2.96-5.92 3.92-2.56.907-5.467 1.36-8.72 1.36zm41.882 0c-3.307 0-6.373-.667-9.2-2-2.773-1.333-4.987-3.147-6.64-5.44s-2.48-4.853-2.48-7.68V37.36c0-2.987.827-5.707 2.48-8.16 1.707-2.507 3.973-4.453 6.8-5.84s5.867-2.08 9.12-2.08c3.2 0 6.133.667 8.8 2 2.72 1.28 4.853 3.12 6.4 5.52 1.547 2.347 2.32 5.013 2.32 8v4.32c0 1.28-.48 2.373-1.44 3.28-.96.853-2.187 1.28-3.68 1.28h-20.16v1.12c0 2.133.64 3.893 1.92 5.28 1.333 1.333 3.28 2 5.84 2 2.507 0 4.347-.533 5.52-1.6 1.173-1.12 1.76-2.507 1.76-4.16 1.067-.107 1.867-.16 2.4-.16 2.187 0 3.867.453 5.04 1.36s1.76 2.24 1.76 4c0 1.44-.72 2.88-2.16 4.32s-3.44 2.613-6 3.52c-2.507.907-5.307 1.36-8.4 1.36zm7.68-24.8V36.8c0-2.133-.72-3.813-2.16-5.04-1.387-1.28-3.227-1.92-5.52-1.92s-4.16.64-5.6 1.92c-1.387 1.227-2.08 2.907-2.08 5.04v1.12h15.36zm17.135-8.32c0-2.667.88-4.72 2.64-6.16s4.373-2.16 7.84-2.16V26a13.7 13.7 0 0 0-2 2.72l.56.32c1.6-2.453 3.626-4.347 6.08-5.68 2.506-1.387 5.28-2.08 8.32-2.08 2.666 0 5.013.613 7.04 1.84 2.08 1.227 3.706 2.933 4.88 5.12 1.173 2.133 1.76 4.533 1.76 7.2v20.88c0 2.293-.907 3.947-2.72 4.96-1.814.96-4.56 1.44-8.24 1.44v-25.6c0-1.813-.587-3.333-1.76-4.56-1.12-1.227-2.72-1.84-4.8-1.84-2.56 0-4.64.827-6.24 2.48s-2.4 3.733-2.4 6.24v16.88c0 2.293-.907 3.947-2.72 4.96-1.76.96-4.507 1.44-8.24 1.44V29.6zm63.595 33.12c-4.533 0-7.867-1.307-10-3.92s-3.2-5.973-3.2-10.08V30.08h-8.48c0-2.72.507-4.747 1.52-6.08s2.347-2 4-2h3.12v-6.32c0-2.293.88-3.92 2.64-4.88 1.76-1.013 4.427-1.52 8-1.52V22h10.64c0 2.88-.533 4.96-1.6 6.24-1.067 1.227-2.827 1.84-5.28 1.84h-3.6v18.24c0 1.76.347 3.04 1.04 3.84.693.747 1.893 1.12 3.6 1.12 1.867 0 3.787-.533 5.76-1.6.587.533 1.04 1.2 1.36 2 .373.8.56 1.6.56 2.4 0 1.067-.373 2.107-1.12 3.12s-1.893 1.867-3.44 2.56c-1.493.64-3.333.96-5.52.96zm32.371 0c-3.306 0-6.373-.667-9.2-2-2.773-1.333-4.986-3.147-6.64-5.44s-2.48-4.853-2.48-7.68V37.36c0-2.987.827-5.707 2.48-8.16 1.707-2.507 3.974-4.453 6.8-5.84s5.867-2.08 9.12-2.08c3.2 0 6.134.667 8.8 2 2.72 1.28 4.854 3.12 6.4 5.52 1.547 2.347 2.32 5.013 2.32 8v4.32c0 1.28-.48 2.373-1.44 3.28-.96.853-2.186 1.28-3.68 1.28h-20.16v1.12c0 2.133.64 3.893 1.92 5.28 1.334 1.333 3.28 2 5.84 2 2.507 0 4.347-.533 5.52-1.6 1.174-1.12 1.76-2.507 1.76-4.16 1.067-.107 1.867-.16 2.4-.16 2.187 0 3.867.453 5.04 1.36s1.76 2.24 1.76 4c0 1.44-.72 2.88-2.16 4.32s-3.44 2.613-6 3.52c-2.506.907-5.306 1.36-8.4 1.36zm7.68-24.8V36.8c0-2.133-.72-3.813-2.16-5.04-1.386-1.28-3.226-1.92-5.52-1.92s-4.16.64-5.6 1.92c-1.386 1.227-2.08 2.907-2.08 5.04v1.12h15.36zm38.815-7.2c-3.2 0-5.787.827-7.76 2.48s-2.96 3.733-2.96 6.24v16.88c0 2.293-.907 3.947-2.72 4.96-1.76.96-4.507 1.44-8.24 1.44V29.6c0-2.667.88-4.72 2.64-6.16s4.373-2.16 7.84-2.16V26a13.7 13.7 0 0 0-2 2.72l.56.32c3.36-5.173 7.546-7.76 12.56-7.76 2.4 0 4.213.64 5.44 1.92s1.84 2.907 1.84 4.88c0 1.493-.4 2.8-1.2 3.92-1.494-.853-3.494-1.28-6-1.28z" fill="#fff"/><g fill="#404b51"><path d="M61.741 19h1.847c6.53.307 12.834 3.543 16.767 8.649C83.167 31.183 84.7 35.578 85 40.024v1.815c-.3 5.903-3.019 11.665-7.575 15.574-3.698 3.286-8.55 5.165-13.505 5.587h-2.686c-5.114-.376-10.12-2.342-13.898-5.77l1.284-1.357a20.69 20.69 0 0 0 14.381 5.234c6.366-.046 12.548-3.337 16.214-8.397 2.545-3.405 3.853-7.613 3.886-11.816-3.717.692-7.505.898-11.278 1.018-.408 2.571-1.716 5.069-3.956 6.559-2.991 2.145-7.303 2.241-10.383.22-2.433-1.467-3.891-4.102-4.289-6.82-2.452-.073-4.898-.179-7.336-.426l1.636-1.655c1.889.193 3.792.234 5.691.27.427-2.906 2.133-5.596 4.758-7.072 3.169-1.696 7.317-1.485 10.181.715 2.1 1.499 3.291 3.901 3.717 6.362 3.75-.055 7.5-.367 11.175-1.114-.689-5.748-3.872-11.183-8.742-14.497-3.211-2.218-7.078-3.447-10.997-3.635-2.184-.037-4.388.179-6.488.793a36.19 36.19 0 0 0-.023-1.888c1.627-.413 3.295-.665 4.973-.724zm-1.055 14.671c-3.342.761-6.047 3.928-5.916 7.329-.075 4.139 4.008 7.805 8.231 7.356 4.144-.243 7.556-4.276 6.937-8.314-.445-4.212-5.02-7.434-9.253-6.371zm.623 2.099c2.967-.752 6.248 1.361 6.703 4.331.656 3.02-1.889 6.165-5.025 6.316-3.056.284-6.037-2.392-5.934-5.408-.047-2.42 1.889-4.666 4.256-5.239zm-.089 1.76c-2.672.784-3.361 4.661-1.12 6.284 2.086 1.856 5.855.435 6.103-2.319.497-2.617-2.452-4.982-4.983-3.965z"/></g><g fill="#56646b"><path d="M40 40.019c.319-9.396 7.462-17.999 16.767-20.295a36.19 36.19 0 0 1 .023 1.888c-7.903 2.209-14.194 9.364-14.756 17.449 1.814.266 3.633.55 5.461.729l-1.636 1.655c-1.345-.142-2.681-.367-4.013-.587-.033 5.665 2.517 11.197 6.773 15.015l-1.284 1.357C43.07 53.435 40.45 48.035 40 42.421v-2.402zm20.686-6.348c4.233-1.063 8.808 2.159 9.253 6.371.619 4.038-2.794 8.071-6.937 8.314-4.224.449-8.306-3.217-8.231-7.356-.131-3.401 2.574-6.568 5.916-7.329zm.624 2.099c-2.367.573-4.303 2.819-4.256 5.239-.103 3.016 2.878 5.693 5.934 5.408 3.136-.151 5.681-3.295 5.025-6.316-.455-2.97-3.736-5.083-6.703-4.331z"/></g><path d="M56.791 21.613c2.1-.614 4.303-.83 6.488-.793-1.458 4.194-3.872 7.984-5.334 12.169-2.625 1.476-4.331 4.166-4.758 7.072-1.898-.037-3.801-.078-5.691-.27-1.828-.179-3.647-.463-5.461-.729.563-8.085 6.853-15.239 14.756-17.449z" fill="#e95653"/><path d="M63.278 20.82c3.919.188 7.786 1.416 10.997 3.635 4.87 3.314 8.053 8.75 8.742 14.497-3.675.747-7.425 1.059-11.175 1.114-.427-2.461-1.617-4.863-3.717-6.362-2.864-2.2-7.013-2.411-10.181-.715 1.462-4.185 3.877-7.975 5.334-12.169z" fill="#e54642"/><g fill="#f5f5f5"><path d="M61.22 37.53c2.531-1.017 5.48 1.347 4.983 3.965-.248 2.755-4.017 4.175-6.103 2.319-2.241-1.623-1.552-5.5 1.12-6.284zm-19.373 3.328l4.013.587 7.336.426c.398 2.718 1.856 5.353 4.289 6.82 3.08 2.021 7.392 1.925 10.383-.22 2.241-1.489 3.548-3.987 3.956-6.559 3.773-.119 7.561-.325 11.278-1.018-.033 4.203-1.341 8.41-3.886 11.816-3.666 5.06-9.848 8.351-16.214 8.397a20.69 20.69 0 0 1-14.381-5.234c-4.256-3.818-6.806-9.35-6.773-15.015z"/></g></g><defs><clipPath id="A"><path fill="#fff" d="M0 0h404v79H0z"/></clipPath></defs></svg>